<?xml version="1.0" encoding="utf-8"?>
<!-- Generator: Adobe Illustrator 18.1.1, SVG Export Plug-In . SVG Version: 6.00 Build 0)  -->
<!DOCTYPE svg PUBLIC "-//W3C//DTD SVG 1.1//EN" "http://www.w3.org/Graphics/SVG/1.1/DTD/svg11.dtd">
<svg version="1.1" id="Layer_1" xmlns="http://www.w3.org/2000/svg" xmlns:xlink="http://www.w3.org/1999/xlink" x="0px" y="0px"
	 viewBox="0 0 103.8 40" enable-background="new 0 0 103.8 40" xml:space="preserve">
<g>
	<path fill="#04020D" d="M20.6,34.1c-0.7,0-1.3-0.4-1.5-1.1l-4.9-16.3L9.3,33c-0.2,0.6-0.8,1.1-1.5,1.1c-0.7,0-1.3-0.4-1.5-1.1
		L0.1,11.8c-0.2-0.8,0.2-1.7,1-1.9c0.8-0.2,1.7,0.2,1.9,1l4.9,16.3L12.8,11c0.2-0.6,0.8-1.1,1.5-1.1c0.7,0,1.3,0.4,1.5,1.1l4.9,16.3
		L25.5,11c0.2-0.8,1.1-1.3,1.9-1c0.8,0.2,1.3,1.1,1,1.9L22,33C21.8,33.6,21.2,34.1,20.6,34.1z"/>
</g>
<g>
	<g>
		<path fill="#04020D" d="M93.8,34.1c-0.7,0-1.3-0.4-1.5-1.1l-4.9-16.3L82.6,33c-0.2,0.6-0.8,1.1-1.5,1.1c-0.7,0-1.3-0.4-1.5-1.1
			l-6.3-21.2c-0.2-0.8,0.2-1.7,1-1.9c0.8-0.2,1.7,0.2,1.9,1l4.9,16.3L86,11c0.2-0.6,0.8-1.1,1.5-1.1c0.7,0,1.3,0.4,1.5,1.1l4.9,16.3
			L98.7,11c0.2-0.8,1.1-1.3,1.9-1c0.8,0.2,1.3,1.1,1,1.9L95.3,33C95.1,33.6,94.5,34.1,93.8,34.1z"/>
	</g>
	<g>
		<path fill="#04020D" d="M102.3,23.7H72.6c-0.8,0-1.5-0.7-1.5-1.5c0-0.8,0.7-1.5,1.5-1.5h29.6c0.8,0,1.5,0.7,1.5,1.5
			C103.8,23.1,103.1,23.7,102.3,23.7z"/>
	</g>
</g>
<path fill="#04020D" d="M70.1,2.8L68,0.8C67.5,0.3,66.9,0,66.2,0c-0.7,0-1.4,0.3-1.9,0.8L50,15.1l1.7,1.7l8.9-8.9l2.5,2.5l-8.9,8.9
	l1.7,1.7L70.1,6.5c0.5-0.5,0.8-1.2,0.8-1.9C70.8,4,70.6,3.3,70.1,2.8z M64.4,8.9l-2.5-2.5l1.4-1.4l2.5,2.5L64.4,8.9z M68.4,4.9
	l-1.3,1.3l-2.5-2.5l1.3-1.3c0.1-0.1,0.1-0.1,0.2-0.1c0.1,0,0.1,0,0.2,0.1l2.1,2.1C68.5,4.6,68.5,4.8,68.4,4.9z M40.9,32.4h-0.7
	l-0.5-1.3l-1.3-0.5v-0.7l9.1-9.1l-1.7-1.7L35.7,29.4l-0.2,0.2L30.8,40l10.5-4.7l10.4-10.4L50,23.3L40.9,32.4z M38.9,33.9l-4.3,2.4
	l2.4-4.3C37,32,37,32,37,32c0,0,0.1,0.1,0.1,0.1c0,0,0.1,0,0.1,0.1l1,0.4l0.4,1c0,0.1,0,0.1,0.1,0.2c0,0,0,0,0,0.1
	C38.8,33.8,38.9,33.9,38.9,33.9L38.9,33.9z"/>
<path fill="#04020D" d="M30.8,4.7c0,0.7,0.3,1.4,0.8,1.9l28.8,28.8L70.8,40l-4.7-10.5L66,29.4L37.4,0.8C36.9,0.3,36.2,0,35.5,0
	c-0.7,0-1.4,0.3-1.9,0.8l-2.1,2.1C31.1,3.3,30.8,4,30.8,4.7z M62.8,33.9c0,0,0.1-0.1,0.1-0.1c0,0,0,0,0-0.1c0-0.1,0.1-0.1,0.1-0.2
	l0.4-1l1-0.4c0,0,0.1,0,0.1-0.1c0,0,0.1,0,0.1-0.1c0,0,0.1,0,0.1-0.1l2.4,4.3L62.8,33.9L62.8,33.9z M38.6,10.2l2.5-2.5l22.1,22.1
	v0.7l-1.3,0.5l-0.5,1.3h-0.7L38.6,10.2z M35.9,7.6l2.5-2.5l1.4,1.4l-2.5,2.5L35.9,7.6z M33.3,4.5l2.1-2.1c0.1-0.1,0.1-0.1,0.2-0.1
	c0.1,0,0.1,0,0.2,0.1l1.3,1.3l-2.5,2.5l-1.3-1.3C33.1,4.8,33.1,4.6,33.3,4.5z"/>
</svg>
